<svg id="white-logo" xmlns="http://www.w3.org/2000/svg" viewBox="0 0 792.51 102.4">
<path class="svg-logo-white" d="M103.08,445.39v65.52h35.74v13.42H87V445.39Z" transform="translate(-86.99 -435.26)" /><path class="svg-logo-white" d="M191.63,445.39h14.7l34.18,78.93H223l-7.07-17.09H182.05L175,524.33H157.45Zm7.4,20.87-11.52,27.5h22.88Z" transform="translate(-86.99 -435.26)" /><path class="svg-logo-white" d="M285.3,491.87h-7.85v32.45H261.37V445.39h36a23.65,23.65,0,0,1,17.26,6.9,23.17,23.17,0,0,1,7,17.31q0,9.85-6.9,15.64a30.93,30.93,0,0,1-12.36,5.84l22.15,33.23H305Zm-7.85-33.06v21.76h16.42a10.65,10.65,0,0,0,10.8-11,10.24,10.24,0,0,0-3.15-7.79,10.72,10.72,0,0,0-7.65-3Z" transform="translate(-86.99 -435.26)" /><path class="svg-logo-white" d="M374.58,445.39h14.7l34.18,78.93H405.91l-7.07-17.09H365l-7.07,17.09H340.4Zm7.4,20.87-11.52,27.5h22.88Z" transform="translate(-86.99 -435.26)" /><path class="svg-logo-white" d="M500.09,471.17a24.2,24.2,0,0,0-3.67-4.84q-7.07-7.24-18.09-7.24t-18.09,7.24q-7,7.18-7,18.65t7,18.68q7,7.21,18,7.21t18.09-7.24a23.49,23.49,0,0,0,3.67-4.9L515,505.46a38.79,38.79,0,0,1-6.79,8.74q-11.8,11.52-29.78,11.52t-29.92-11.55q-11.94-11.55-11.94-29.2t11.94-29.28q11.94-11.63,29.92-11.63T508,455.86a38.8,38.8,0,0,1,6.79,8.57Z" transform="translate(-86.99 -435.26)" /><path class="svg-logo-white" d="M677.73,444a44.48,44.48,0,0,1,29.11,10.35l-9.46,11.41a28.39,28.39,0,0,0-9.24-5.59,30.16,30.16,0,0,0-10.24-1.75q-6.12,0-9.63,2.67a6.49,6.49,0,0,0-2.56,5.29,6.56,6.56,0,0,0,3.28,5.68q2.56,1.73,12.41,4.51,11.63,3,17.31,6.57,10,6.63,10,18.43,0,10.8-9.35,17.92-8.46,6.24-21.49,6.23a46.6,46.6,0,0,1-33-13l9-11.47a36.24,36.24,0,0,0,10.3,7.07,29.9,29.9,0,0,0,13.64,3.28q6.68,0,10.58-2.84a8.35,8.35,0,0,0,3.51-6.62,7.28,7.28,0,0,0-3.56-6.29q-2.62-1.78-12.13-4.45-12.19-3.51-17.14-6.4-10.3-6.07-10.3-17.59A20.53,20.53,0,0,1,657,450.46Q665.21,444,677.73,444Z" transform="translate(-86.99 -435.26)" /><path class="svg-logo-white" d="M730.16,445.39h64.13v13.3h-24v65.63H754.09V458.7H730.16Z" transform="translate(-86.99 -435.26)" /><path class="svg-logo-white" d="M848.49,444a44.47,44.47,0,0,1,29.11,10.35l-9.46,11.41a28.36,28.36,0,0,0-9.24-5.59,30.16,30.16,0,0,0-10.24-1.75q-6.12,0-9.63,2.67a6.49,6.49,0,0,0-2.56,5.29,6.56,6.56,0,0,0,3.29,5.68q2.56,1.73,12.41,4.51,11.63,3,17.31,6.57,10,6.63,10,18.43,0,10.8-9.35,17.92-8.46,6.24-21.49,6.23a46.6,46.6,0,0,1-33-13l9-11.47a36.23,36.23,0,0,0,10.3,7.07,29.91,29.91,0,0,0,13.64,3.28q6.68,0,10.58-2.84a8.35,8.35,0,0,0,3.51-6.62,7.28,7.28,0,0,0-3.56-6.29Q856.56,494,847,491.37q-12.19-3.51-17.14-6.4-10.3-6.07-10.3-17.59a20.53,20.53,0,0,1,8.18-16.92Q836,444,848.49,444Z" transform="translate(-86.99 -435.26)" />
<path id="arrow" fill="#00b1b2" d="M549.44,537.66V504.75h12v13.78L621,489.74a29.75,29.75,0,0,0,4.21-2.31,15.41,15.41,0,0,0-1.36-.88l-62.42-31.73v19.93h-12V435.26L629.58,476c2.95,1.62,9.73,6.09,9,12.45-.68,6.09-8.18,10.27-12.67,12.24l-76.49,37Z" transform="translate(-86.99 -435.26)" /><path class="svg-logo-white" d="M579.77,499H535a4.08,4.08,0,1,1,0-8.16h44.75a4.08,4.08,0,1,1,0,8.16Z" transform="translate(-86.99 -435.26)" /><path class="svg-logo-white" d="M525.91,499h-8.23a4.08,4.08,0,1,1,0-8.16h8.23a4.08,4.08,0,1,1,0,8.16Z" transform="translate(-86.99 -435.26)" /><path class="svg-logo-white" d="M544.14,488.13h-8.23a4.08,4.08,0,0,1,0-8.16h8.23a4.08,4.08,0,1,1,0,8.16Z" transform="translate(-86.99 -435.26)" /><path class="svg-logo-white" d="M596.19,488.14H553.44a4.08,4.08,0,1,1,0-8.16h42.75a4.08,4.08,0,0,1,0,8.16Z" transform="translate(-86.99 -435.26)" />
</svg>