<?xml version="1.0" standalone="no"?>
<!DOCTYPE svg PUBLIC "-//W3C//DTD SVG 20010904//EN"
 "http://www.w3.org/TR/2001/REC-SVG-20010904/DTD/svg10.dtd">
<svg version="1.0" xmlns="http://www.w3.org/2000/svg"
 width="528.000000pt" height="528.000000pt" viewBox="0 0 528.000000 528.000000"
 preserveAspectRatio="xMidYMid meet">
<metadata>
Created by potrace 1.11, written by Peter Selinger 2001-2013
</metadata>
<g transform="translate(0.000000,528.000000) scale(0.100000,-0.100000)"
fill="#000000" stroke="none">
<path d="M1530 4767 c-1 -21 -1 -1519 0 -1579 l0 -57 250 0 250 1 0 414 c0
228 1 414 3 414 2 0 41 -20 87 -43 47 -24 252 -128 455 -232 204 -103 489
-248 635 -323 483 -245 821 -418 1135 -577 171 -86 316 -163 324 -170 11 -11
7 -17 -25 -37 -22 -14 -77 -43 -124 -65 -47 -23 -175 -85 -285 -138 -110 -54
-254 -123 -320 -155 -66 -32 -205 -99 -310 -150 -104 -51 -239 -116 -300 -145
-60 -29 -191 -92 -290 -140 -374 -181 -533 -259 -630 -305 -55 -26 -156 -75
-223 -109 -68 -33 -126 -61 -128 -61 -2 0 -4 128 -4 285 0 221 -3 285 -12 286
-7 0 -120 1 -251 2 l-237 2 0 -60 c-2 -267 0 -1308 2 -1310 2 -2 91 40 198 92
107 52 236 114 285 138 50 23 164 79 255 123 302 146 484 234 625 302 77 37
217 105 310 151 94 45 172 83 175 84 3 1 82 39 175 84 94 46 220 107 280 136
61 29 200 96 310 150 110 54 259 125 330 160 438 210 521 258 622 360 200 204
197 417 -9 623 -82 83 -187 146 -533 322 -309 157 -584 297 -1165 593 -532
271 -818 416 -1165 592 -192 98 -428 218 -522 266 -96 49 -173 83 -173 76z"/>
<path d="M919 2907 c-60 -16 -109 -69 -122 -132 -15 -78 44 -173 120 -192 21
-5 128 -9 238 -8 210 1 236 6 277 52 29 32 48 89 43 132 -6 57 -29 97 -76 128
-40 27 -41 27 -244 28 -112 0 -218 -3 -236 -8z"/>
<path d="M1669 2910 c-48 -7 -105 -47 -126 -90 -21 -44 -19 -124 4 -159 21
-32 30 -41 68 -66 29 -19 50 -20 965 -20 895 0 937 1 973 19 69 34 107 124 86
199 -10 37 -42 76 -83 103 -29 18 -63 19 -940 19 -501 0 -927 -2 -947 -5z"/>
<path d="M310 2460 c-171 -5 -187 -9 -228 -53 -54 -57 -60 -143 -16 -210 45
-68 77 -75 313 -75 232 0 251 5 305 71 26 33 31 47 31 96 0 71 -31 122 -91
151 -48 24 -95 27 -314 20z"/>
<path d="M989 2460 c-117 -5 -128 -7 -161 -32 -109 -83 -82 -256 46 -297 20
-7 375 -9 1002 -8 l970 2 35 24 c52 35 72 69 77 126 7 87 -44 161 -123 180
-34 8 -1656 13 -1846 5z"/>
</g>
</svg>
